<svg width="64" height="64" viewBox="0 0 64 64" fill="none" xmlns="http://www.w3.org/2000/svg">
<g clip-path="url(#clip0)">
<rect width="64" height="64" fill="black" fill-opacity="0.02"/>
<path d="M20.2988 61V52.5977H22.9648C23.7773 52.5977 24.4199 52.7754 24.8926 53.1309C25.3691 53.4863 25.6074 53.9492 25.6074 54.5195C25.6074 54.9961 25.4727 55.4102 25.2031 55.7617C24.9336 56.1133 24.5605 56.3633 24.084 56.5117V56.5352C24.6621 56.6016 25.123 56.8164 25.4668 57.1797C25.8145 57.5391 25.9883 58.0078 25.9883 58.5859C25.9883 59.3047 25.7051 59.8867 25.1387 60.332C24.5723 60.7773 23.8574 61 22.9941 61H20.2988ZM21.6875 53.7168V56.1074H22.5898C23.0742 56.1074 23.4531 55.9941 23.7266 55.7676C24.0039 55.5371 24.1426 55.2129 24.1426 54.7949C24.1426 54.0762 23.6621 53.7168 22.7012 53.7168H21.6875ZM21.6875 57.2266V59.8867H22.877C23.3965 59.8867 23.7969 59.7676 24.0781 59.5293C24.3633 59.2871 24.5059 58.9551 24.5059 58.5332C24.5059 57.6621 23.9023 57.2266 22.6953 57.2266H21.6875ZM32.0059 61H30.6875V60.0625H30.6641C30.25 60.7812 29.6426 61.1406 28.8418 61.1406C28.252 61.1406 27.7891 60.9805 27.4531 60.6602C27.1211 60.3398 26.9551 59.916 26.9551 59.3887C26.9551 58.2559 27.6074 57.5957 28.9121 57.4082L30.6934 57.1562C30.6934 56.3008 30.2871 55.873 29.4746 55.873C28.7598 55.873 28.1152 56.1191 27.541 56.6113V55.4219C28.1738 55.0469 28.9043 54.8594 29.7324 54.8594C31.248 54.8594 32.0059 55.6055 32.0059 57.0977V61ZM30.6934 58.0527L29.4336 58.2285C29.043 58.2793 28.748 58.375 28.5488 58.5156C28.3535 58.6523 28.2559 58.8945 28.2559 59.2422C28.2559 59.4961 28.3457 59.7051 28.5254 59.8691C28.709 60.0293 28.9531 60.1094 29.2578 60.1094C29.6719 60.1094 30.0137 59.9648 30.2832 59.6758C30.5566 59.3828 30.6934 59.0156 30.6934 58.5742V58.0527ZM37.9648 60.7246C37.4844 61.002 36.916 61.1406 36.2598 61.1406C35.3691 61.1406 34.6504 60.8633 34.1035 60.3086C33.5566 59.75 33.2832 59.0273 33.2832 58.1406C33.2832 57.1523 33.5762 56.3594 34.1621 55.7617C34.752 55.1602 35.5391 54.8594 36.5234 54.8594C37.0703 54.8594 37.5527 54.9551 37.9707 55.1465V56.4121C37.5527 56.0996 37.1074 55.9434 36.6348 55.9434C36.0605 55.9434 35.5898 56.1387 35.2227 56.5293C34.8555 56.916 34.6719 57.4238 34.6719 58.0527C34.6719 58.6738 34.8438 59.1641 35.1875 59.5234C35.5352 59.8828 36 60.0625 36.582 60.0625C37.0703 60.0625 37.5312 59.8887 37.9648 59.541V60.7246ZM44.7617 61H43.0391L40.707 58.1172H40.6836V61H39.3184V52.1172H40.6836V57.748H40.707L42.9102 55H44.5449L42.0664 57.8945L44.7617 61Z" fill="#323130"/>
<path d="M50 26.125H18.3945L32.2285 39.959L30.6465 41.541L14.1055 25L30.6465 8.45898L32.2285 10.041L18.3945 23.875H50V26.125Z" fill="black" fill-opacity="0.7"/>
</g>
<defs>
<clipPath id="clip0">
<rect width="64" height="64" fill="white"/>
</clipPath>
</defs>
</svg>
