<svg width="64" height="64" viewBox="0 0 64 64" fill="none" xmlns="http://www.w3.org/2000/svg">
<g clip-path="url(#clip0)">
<rect width="64" height="64" fill="black" fill-opacity="0.02"/>
<path d="M27.3281 60H25.8047L21.791 53.8242C21.6895 53.668 21.6055 53.5059 21.5391 53.3379H21.5039C21.5352 53.5176 21.5508 53.9023 21.5508 54.4922V60H20.2031V51.5977H21.8262L25.7051 57.627C25.8691 57.877 25.9746 58.0488 26.0215 58.1426H26.0449C26.0059 57.9199 25.9863 57.543 25.9863 57.0117V51.5977H27.3281V60ZM34.3418 57.3691H30.252C30.2676 57.9238 30.4375 58.3516 30.7617 58.6523C31.0898 58.9531 31.5391 59.1035 32.1094 59.1035C32.75 59.1035 33.3379 58.9121 33.873 58.5293V59.625C33.3262 59.9688 32.6035 60.1406 31.7051 60.1406C30.8223 60.1406 30.1289 59.8691 29.625 59.3262C29.125 58.7793 28.875 58.0117 28.875 57.0234C28.875 56.0898 29.1504 55.3301 29.7012 54.7441C30.2559 54.1543 30.9434 53.8594 31.7637 53.8594C32.584 53.8594 33.2188 54.123 33.668 54.6504C34.1172 55.1777 34.3418 55.9102 34.3418 56.8477V57.3691ZM33.0293 56.4082C33.0254 55.9199 32.9102 55.541 32.6836 55.2715C32.457 54.998 32.1445 54.8613 31.7461 54.8613C31.3555 54.8613 31.0234 55.0039 30.75 55.2891C30.4805 55.5742 30.3145 55.9473 30.252 56.4082H33.0293ZM43.7051 54L41.9355 60H40.5117L39.4219 55.9336C39.3789 55.7773 39.3516 55.6016 39.3398 55.4062H39.3164C39.3086 55.5391 39.2734 55.7109 39.2109 55.9219L38.0273 60H36.6328L34.8691 54H36.2754L37.3652 58.3242C37.4004 58.4531 37.4238 58.625 37.4355 58.8398H37.4766C37.4883 58.6758 37.5195 58.5 37.5703 58.3125L38.7832 54H40.0605L41.1387 58.3418C41.1738 58.4785 41.1992 58.6504 41.2148 58.8574H41.2559C41.2637 58.7129 41.293 58.541 41.3438 58.3418L42.4102 54H43.7051Z" fill="#323130"/>
<path d="M45 18.6504V45H15.75V9H35.3496L45 18.6504ZM36 18H41.1504L36 12.8496V18ZM42.75 42.75V20.25H33.75V11.25H18V42.75H42.75ZM26.666 25.541L22.957 29.25L26.666 32.959L25.084 34.541L19.793 29.25L25.084 23.959L26.666 25.541ZM35.666 23.959L40.957 29.25L35.666 34.541L34.084 32.959L37.793 29.25L34.084 25.541L35.666 23.959Z" fill="black" fill-opacity="0.7"/>
</g>
<defs>
<clipPath id="clip0">
<rect width="64" height="64" fill="white"/>
</clipPath>
</defs>
</svg>
