<svg width="64" height="64" viewBox="0 0 64 64" fill="none" xmlns="http://www.w3.org/2000/svg">
<g clip-path="url(#clip0)">
<rect width="64" height="64" fill="black" fill-opacity="0.02"/>
<path d="M14.3086 60V51.5977H16.7344C19.832 51.5977 21.3809 52.9629 21.3809 55.6934C21.3809 56.9902 20.9512 58.0332 20.0918 58.8223C19.2324 59.6074 18.0801 60 16.6348 60H14.3086ZM15.6973 52.7812V58.8223H16.8105C17.791 58.8223 18.5527 58.5527 19.0957 58.0137C19.6426 57.4746 19.916 56.7129 19.916 55.7285C19.916 53.7637 18.8984 52.7812 16.8633 52.7812H15.6973ZM27.8496 57.3691H23.7598C23.7754 57.9238 23.9453 58.3516 24.2695 58.6523C24.5977 58.9531 25.0469 59.1035 25.6172 59.1035C26.2578 59.1035 26.8457 58.9121 27.3809 58.5293V59.625C26.834 59.9688 26.1113 60.1406 25.2129 60.1406C24.3301 60.1406 23.6367 59.8691 23.1328 59.3262C22.6328 58.7793 22.3828 58.0117 22.3828 57.0234C22.3828 56.0898 22.6582 55.3301 23.209 54.7441C23.7637 54.1543 24.4512 53.8594 25.2715 53.8594C26.0918 53.8594 26.7266 54.123 27.1758 54.6504C27.625 55.1777 27.8496 55.9102 27.8496 56.8477V57.3691ZM26.5371 56.4082C26.5332 55.9199 26.418 55.541 26.1914 55.2715C25.9648 54.998 25.6523 54.8613 25.2539 54.8613C24.8633 54.8613 24.5312 55.0039 24.2578 55.2891C23.9883 55.5742 23.8223 55.9473 23.7598 56.4082H26.5371ZM30.5273 59.1328H30.5039V60H29.1445V51.1172H30.5039V55.0547H30.5273C30.9922 54.2578 31.6719 53.8594 32.5664 53.8594C33.3242 53.8594 33.916 54.1289 34.3418 54.668C34.7715 55.2031 34.9863 55.9219 34.9863 56.8242C34.9863 57.8281 34.7461 58.6328 34.2656 59.2383C33.7852 59.8398 33.1289 60.1406 32.2969 60.1406C31.5156 60.1406 30.9258 59.8047 30.5273 59.1328ZM30.4922 56.748V57.4922C30.4922 57.9297 30.6309 58.3008 30.9082 58.6055C31.1895 58.9102 31.5449 59.0625 31.9746 59.0625C32.4785 59.0625 32.873 58.8672 33.1582 58.4766C33.4473 58.082 33.5918 57.5332 33.5918 56.8301C33.5918 56.2402 33.457 55.7793 33.1875 55.4473C32.9219 55.1113 32.5605 54.9434 32.1035 54.9434C31.6191 54.9434 31.2285 55.1152 30.9316 55.459C30.6387 55.8027 30.4922 56.2324 30.4922 56.748ZM41.6074 60H40.248V59.0508H40.2246C39.8301 59.7773 39.2168 60.1406 38.3848 60.1406C36.9668 60.1406 36.2578 59.2891 36.2578 57.5859V54H37.6172V57.4453C37.6172 58.5234 38.0332 59.0625 38.8652 59.0625C39.2676 59.0625 39.5977 58.9141 39.8555 58.6172C40.1172 58.3203 40.248 57.9316 40.248 57.4512V54H41.6074V60ZM48.8438 59.5195C48.8438 61.7227 47.7363 62.8242 45.5215 62.8242C44.7402 62.8242 44.0586 62.6934 43.4766 62.4316V61.1895C44.1328 61.5645 44.7559 61.752 45.3457 61.752C46.7715 61.752 47.4844 61.0508 47.4844 59.6484V58.9922H47.4609C47.0117 59.7578 46.3359 60.1406 45.4336 60.1406C44.7031 60.1406 44.1133 59.875 43.6641 59.3438C43.2188 58.8086 42.9961 58.0918 42.9961 57.1934C42.9961 56.1738 43.2363 55.3633 43.7168 54.7617C44.1973 54.1602 44.8574 53.8594 45.6973 53.8594C46.4902 53.8594 47.0781 54.1836 47.4609 54.832H47.4844V54H48.8438V59.5195ZM47.4961 57.252V56.4727C47.4961 56.0508 47.3555 55.6914 47.0742 55.3945C46.7969 55.0938 46.4492 54.9434 46.0312 54.9434C45.5156 54.9434 45.1113 55.1348 44.8184 55.5176C44.5293 55.8965 44.3848 56.4277 44.3848 57.1113C44.3848 57.7012 44.5234 58.1738 44.8008 58.5293C45.082 58.8809 45.4531 59.0566 45.9141 59.0566C46.3828 59.0566 46.7637 58.8887 47.0566 58.5527C47.3496 58.2129 47.4961 57.7793 47.4961 57.252Z" fill="#323130"/>
<path d="M42.1487 24.7676C42.9105 24.791 43.6253 24.9551 44.2933 25.2598C44.9612 25.5527 45.5413 25.9512 46.0335 26.4551C46.5257 26.959 46.9124 27.5508 47.1937 28.2305C47.4866 28.8984 47.6331 29.6133 47.6331 30.375V33.75H45.3831V30.375C45.3831 30 45.3187 29.6426 45.1898 29.3027C45.0726 28.9512 44.9026 28.6348 44.68 28.3535C44.4691 28.0605 44.2112 27.8145 43.9066 27.6152C43.6019 27.4043 43.2679 27.2461 42.9046 27.1406C42.9749 27.4805 43.0276 27.832 43.0628 28.1953C43.1097 28.5469 43.1331 28.8984 43.1331 29.25V33.75C43.1331 33.832 43.1273 33.9082 43.1155 33.9785C43.1038 34.0488 43.0921 34.125 43.0804 34.207L43.1859 34.1016C43.889 34.8047 44.428 35.6133 44.803 36.5273C45.178 37.4414 45.3655 38.3965 45.3655 39.3926C45.3655 40.3887 45.178 41.3438 44.803 42.2578C44.428 43.1602 43.889 43.9629 43.1859 44.666L41.6038 43.084C42.096 42.5918 42.471 42.0352 42.7288 41.4141C42.9866 40.7812 43.1155 40.1133 43.1155 39.4102C43.1155 38.6133 42.9339 37.8398 42.5706 37.0898C42.2073 38.2617 41.6741 39.334 40.971 40.3066C40.2796 41.2793 39.4651 42.1113 38.5276 42.8027C37.5901 43.4941 36.553 44.0332 35.4163 44.4199C34.2913 44.8066 33.1136 45 31.8831 45C30.6526 45 29.4691 44.8066 28.3323 44.4199C27.2073 44.0332 26.1761 43.4941 25.2386 42.8027C24.3011 42.1113 23.4808 41.2793 22.7776 40.3066C22.0862 39.334 21.5589 38.2617 21.1956 37.0898C20.8323 37.8398 20.6507 38.6133 20.6507 39.4102C20.6507 40.1133 20.7796 40.7812 21.0374 41.4141C21.2952 42.0352 21.6702 42.5918 22.1624 43.084L20.5804 44.666C19.8773 43.9629 19.3323 43.1602 18.9456 42.2578C18.5706 41.3438 18.3831 40.3887 18.3831 39.3926C18.3831 38.3965 18.5706 37.4414 18.9456 36.5273C19.3323 35.6133 19.8773 34.8047 20.5804 34.1016L20.6859 34.207C20.6741 34.125 20.6624 34.0488 20.6507 33.9785C20.639 33.9082 20.6331 33.832 20.6331 33.75V29.25C20.6331 28.8984 20.6507 28.5469 20.6859 28.1953C20.7327 27.832 20.7913 27.4805 20.8616 27.1406C20.4984 27.2461 20.1644 27.4043 19.8597 27.6152C19.555 27.8145 19.2913 28.0605 19.0687 28.3535C18.8577 28.6348 18.6878 28.9512 18.5589 29.3027C18.4417 29.6426 18.3831 30 18.3831 30.375V33.75H16.1331V30.375C16.1331 29.6133 16.2737 28.8984 16.555 28.2305C16.848 27.5508 17.2405 26.959 17.7327 26.4551C18.2249 25.9512 18.805 25.5527 19.473 25.2598C20.1409 24.9551 20.8558 24.791 21.6175 24.7676C21.9808 23.9473 22.4495 23.1562 23.0237 22.3945C22.3558 22.2773 21.7347 22.0547 21.1605 21.7266C20.598 21.3867 20.1116 20.9707 19.7015 20.4785C19.2913 19.9863 18.9691 19.4355 18.7347 18.8262C18.5003 18.2051 18.3831 17.5547 18.3831 16.875V13.5H20.6331V16.875C20.6331 17.3438 20.721 17.7832 20.8968 18.1934C21.0726 18.6035 21.3128 18.9609 21.6175 19.2656C21.9222 19.5703 22.2796 19.8105 22.6898 19.9863C23.0999 20.1621 23.5394 20.25 24.0081 20.25H25.1331V20.3027C25.6839 19.8926 26.2464 19.5469 26.8206 19.2656C26.6448 18.8906 26.5042 18.5039 26.3987 18.1055C26.305 17.6953 26.2581 17.2852 26.2581 16.875C26.2581 16.0547 26.4398 15.2637 26.803 14.502L24.3421 12.041L25.9241 10.459L28.1566 12.6914C28.6839 12.2344 29.2581 11.8828 29.8792 11.6367C30.512 11.3789 31.18 11.25 31.8831 11.25C32.5862 11.25 33.2484 11.3789 33.8694 11.6367C34.5023 11.8828 35.0823 12.2344 35.6097 12.6914L37.8421 10.459L39.4241 12.041L36.9632 14.502C37.3265 15.2637 37.5081 16.0547 37.5081 16.875C37.5081 17.2852 37.4554 17.6953 37.3499 18.1055C37.2562 18.5039 37.1214 18.8906 36.9456 19.2656C37.2503 19.418 37.5374 19.582 37.8069 19.7578C38.0882 19.9219 38.3636 20.1035 38.6331 20.3027V20.25H39.7581C40.2269 20.25 40.6663 20.1621 41.0765 19.9863C41.4866 19.8105 41.8441 19.5703 42.1487 19.2656C42.4534 18.9609 42.6937 18.6035 42.8694 18.1934C43.0452 17.7832 43.1331 17.3438 43.1331 16.875V13.5H45.3831V16.875C45.3831 17.5547 45.2659 18.2051 45.0316 18.8262C44.7972 19.4355 44.4749 19.9863 44.0648 20.4785C43.6546 20.9707 43.1624 21.3867 42.5882 21.7266C42.0257 22.0547 41.4105 22.2773 40.7425 22.3945C41.3167 23.1562 41.7855 23.9473 42.1487 24.7676ZM31.8831 13.5C31.4144 13.5 30.9749 13.5879 30.5648 13.7637C30.1546 13.9395 29.7972 14.1797 29.4925 14.4844C29.1878 14.7891 28.9476 15.1465 28.7718 15.5566C28.596 15.9668 28.5081 16.4062 28.5081 16.875C28.5081 17.4609 28.6487 17.9883 28.93 18.457C29.4222 18.3281 29.9085 18.2285 30.389 18.1582C30.8812 18.0762 31.3792 18.0352 31.8831 18.0352C32.387 18.0352 32.8792 18.0762 33.3597 18.1582C33.8519 18.2285 34.3441 18.3281 34.8362 18.457C35.1175 17.9883 35.2581 17.4609 35.2581 16.875C35.2581 16.4062 35.1702 15.9668 34.9944 15.5566C34.8187 15.1465 34.5784 14.7891 34.2737 14.4844C33.9691 14.1797 33.6116 13.9395 33.2015 13.7637C32.7913 13.5879 32.3519 13.5 31.8831 13.5ZM40.8831 29.25C40.8831 28.0312 40.6429 26.877 40.1624 25.7871C39.6819 24.6973 39.0316 23.7422 38.2112 22.9219C37.4026 22.1016 36.4534 21.4512 35.3636 20.9707C34.2737 20.4902 33.1136 20.25 31.8831 20.25C30.6526 20.25 29.4925 20.4902 28.4026 20.9707C27.3128 21.4512 26.3577 22.1016 25.5374 22.9219C24.7288 23.7422 24.0843 24.6973 23.6038 25.7871C23.1234 26.877 22.8831 28.0312 22.8831 29.25V33.75C22.8831 34.9922 23.1175 36.1582 23.5862 37.248C24.0667 38.3379 24.7112 39.293 25.5198 40.1133C26.3401 40.9219 27.2952 41.5664 28.3851 42.0469C29.4749 42.5156 30.6409 42.75 31.8831 42.75C33.1253 42.75 34.2913 42.5156 35.3812 42.0469C36.471 41.5664 37.4202 40.9219 38.2288 40.1133C39.0491 39.293 39.6937 38.3379 40.1624 37.248C40.6429 36.1582 40.8831 34.9922 40.8831 33.75V29.25Z" fill="black" fill-opacity="0.7"/>
</g>
<defs>
<clipPath id="clip0">
<rect width="64" height="64" fill="white"/>
</clipPath>
</defs>
</svg>
