<svg width="64" height="64" viewBox="0 0 64 64" fill="none" xmlns="http://www.w3.org/2000/svg">
<rect width="64" height="64" fill="black" fill-opacity="0.02"/>
<path d="M15.6348 59H14.1992V50.5977H15.6348V59ZM26.5273 59H25.168V55.7305C25.168 55.1016 25.0781 54.6465 24.8984 54.3652C24.7227 54.084 24.4238 53.9434 24.002 53.9434C23.6465 53.9434 23.3438 54.1211 23.0938 54.4766C22.8477 54.832 22.7246 55.2578 22.7246 55.7539V59H21.3594V55.6191C21.3594 54.502 20.9648 53.9434 20.1758 53.9434C19.8086 53.9434 19.5059 54.1113 19.2676 54.4473C19.0332 54.7832 18.916 55.2188 18.916 55.7539V59H17.5566V53H18.916V53.9492H18.9395C19.373 53.2227 20.0039 52.8594 20.832 52.8594C21.2461 52.8594 21.6074 52.9746 21.916 53.2051C22.2285 53.4316 22.4414 53.7305 22.5547 54.1016C23 53.2734 23.6641 52.8594 24.5469 52.8594C25.8672 52.8594 26.5273 53.6738 26.5273 55.3027V59ZM29.5684 58.1152H29.5449V61.7598H28.1855V53H29.5449V54.0547H29.5684C30.0332 53.2578 30.7129 52.8594 31.6074 52.8594C32.3691 52.8594 32.9629 53.127 33.3887 53.6621C33.8145 54.1973 34.0273 54.916 34.0273 55.8184C34.0273 56.8184 33.7871 57.6191 33.3066 58.2207C32.8262 58.8223 32.1699 59.123 31.3379 59.123C30.5723 59.123 29.9824 58.7871 29.5684 58.1152ZM29.5332 55.748V56.4922C29.5332 56.9297 29.6719 57.3008 29.9492 57.6055C30.2305 57.9102 30.5859 58.0625 31.0156 58.0625C31.5195 58.0625 31.9141 57.8672 32.1992 57.4766C32.4883 57.082 32.6328 56.5332 32.6328 55.8301C32.6328 55.2402 32.498 54.7793 32.2285 54.4473C31.9629 54.1113 31.6016 53.9434 31.1445 53.9434C30.6602 53.9434 30.2695 54.1152 29.9727 54.459C29.6797 54.8027 29.5332 55.2324 29.5332 55.748ZM38.0762 59.1406C37.1504 59.1406 36.4102 58.8613 35.8555 58.3027C35.3047 57.7402 35.0293 56.9961 35.0293 56.0703C35.0293 55.0625 35.3164 54.2754 35.8906 53.709C36.4688 53.1426 37.2461 52.8594 38.2227 52.8594C39.1602 52.8594 39.8906 53.1348 40.4141 53.6855C40.9375 54.2363 41.1992 55 41.1992 55.9766C41.1992 56.9336 40.916 57.7012 40.3496 58.2793C39.7871 58.8535 39.0293 59.1406 38.0762 59.1406ZM38.1406 53.9434C37.6094 53.9434 37.1895 54.1289 36.8809 54.5C36.5723 54.8711 36.418 55.3828 36.418 56.0352C36.418 56.6641 36.5742 57.1602 36.8867 57.5234C37.1992 57.8828 37.6172 58.0625 38.1406 58.0625C38.6758 58.0625 39.0859 57.8848 39.3711 57.5293C39.6602 57.1738 39.8047 56.668 39.8047 56.0117C39.8047 55.3516 39.6602 54.8418 39.3711 54.4824C39.0859 54.123 38.6758 53.9434 38.1406 53.9434ZM46.0684 54.2949C45.9043 54.166 45.668 54.1016 45.3594 54.1016C44.957 54.1016 44.6211 54.2832 44.3516 54.6465C44.082 55.0098 43.9473 55.5039 43.9473 56.1289V59H42.5879V53H43.9473V54.2363H43.9707C44.1035 53.8145 44.3066 53.4863 44.5801 53.252C44.8574 53.0137 45.166 52.8945 45.5059 52.8945C45.752 52.8945 45.9395 52.9316 46.0684 53.0059V54.2949ZM50.5449 58.9355C50.2793 59.0684 49.9297 59.1348 49.4961 59.1348C48.332 59.1348 47.75 58.5762 47.75 57.459V54.0664H46.748V53H47.75V51.6113L49.1094 51.2246V53H50.5449V54.0664H49.1094V57.0664C49.1094 57.4219 49.1738 57.6758 49.3027 57.8281C49.4316 57.9805 49.6465 58.0566 49.9473 58.0566C50.1777 58.0566 50.377 57.9902 50.5449 57.8574V58.9355Z" fill="#323130"/>
<path d="M21.2206 44V41.75H41.4706V44H21.2206ZM42.2616 26.791L31.3456 37.7949L20.4296 26.791L22.0116 25.209L30.2206 33.4707V8H32.4706V33.4707L40.6796 25.209L42.2616 26.791Z" fill="black" fill-opacity="0.7"/>
</svg>
