<svg width="64" height="64" viewBox="0 0 64 64" fill="none" xmlns="http://www.w3.org/2000/svg">
<g clip-path="url(#clip0)">
<rect width="64" height="64" fill="black" fill-opacity="0.02"/>
<path d="M28.998 60.6484C28.3652 60.9766 27.5781 61.1406 26.6367 61.1406C25.418 61.1406 24.4414 60.7559 23.707 59.9863C22.9727 59.2168 22.6055 58.207 22.6055 56.957C22.6055 55.6133 23.0176 54.5273 23.8418 53.6992C24.6699 52.8711 25.7148 52.457 26.9766 52.457C27.7891 52.457 28.4629 52.5723 28.998 52.8027V54.1855C28.4316 53.8496 27.8066 53.6816 27.123 53.6816C26.2129 53.6816 25.4746 53.9727 24.9082 54.5547C24.3457 55.1367 24.0645 55.9141 24.0645 56.8867C24.0645 57.8125 24.3281 58.5508 24.8555 59.1016C25.3828 59.6484 26.0762 59.9219 26.9355 59.9219C27.7285 59.9219 28.416 59.7344 28.998 59.3594V60.6484ZM35.6719 61H34.3125V60.0508H34.2891C33.8945 60.7773 33.2812 61.1406 32.4492 61.1406C31.0312 61.1406 30.3223 60.2891 30.3223 58.5859V55H31.6816V58.4453C31.6816 59.5234 32.0977 60.0625 32.9297 60.0625C33.332 60.0625 33.6621 59.9141 33.9199 59.6172C34.1816 59.3203 34.3125 58.9316 34.3125 58.4512V55H35.6719V61ZM40.6113 60.9355C40.3457 61.0684 39.9961 61.1348 39.5625 61.1348C38.3984 61.1348 37.8164 60.5762 37.8164 59.459V56.0664H36.8145V55H37.8164V53.6113L39.1758 53.2246V55H40.6113V56.0664H39.1758V59.0664C39.1758 59.4219 39.2402 59.6758 39.3691 59.8281C39.498 59.9805 39.7129 60.0566 40.0137 60.0566C40.2441 60.0566 40.4434 59.9902 40.6113 59.8574V60.9355Z" fill="#323130"/>
<path d="M38.7348 35C39.3324 35.0234 39.8949 35.1582 40.4223 35.4043C40.9613 35.6387 41.4242 35.9609 41.811 36.3711C42.2094 36.7812 42.5199 37.2559 42.7426 37.7949C42.977 38.334 43.0942 38.9023 43.0942 39.5C43.0942 40.1211 42.9711 40.707 42.725 41.2578C42.4906 41.7969 42.1684 42.2715 41.7582 42.6816C41.3598 43.0801 40.8852 43.4023 40.3344 43.6484C39.7836 43.8828 39.2035 44 38.5942 44C37.9731 44 37.3871 43.8828 36.8363 43.6484C36.2973 43.4023 35.8227 43.0801 35.4125 42.6816C35.0141 42.2715 34.6918 41.7969 34.4457 41.2578C34.2113 40.707 34.0942 40.1211 34.0942 39.5C34.0942 38.668 34.3051 37.8945 34.727 37.1797C35.1606 36.4648 35.7465 35.9141 36.4848 35.5273L31.809 26.1934L27.1508 35.4922C27.5258 35.6914 27.8598 35.9316 28.1528 36.2129C28.4574 36.4941 28.7153 36.8105 28.9262 37.1621C29.1371 37.5137 29.3012 37.8887 29.4184 38.2871C29.5356 38.6738 29.5942 39.0781 29.5942 39.5C29.5942 40.1211 29.4711 40.707 29.225 41.2578C28.9906 41.7969 28.6684 42.2715 28.2582 42.6816C27.8598 43.0801 27.3852 43.4023 26.8344 43.6484C26.2836 43.8828 25.7035 44 25.0942 44C24.4731 44 23.8871 43.8828 23.3363 43.6484C22.7973 43.4023 22.3227 43.0801 21.9125 42.6816C21.5141 42.2715 21.1918 41.7969 20.9457 41.2578C20.7113 40.707 20.5942 40.1211 20.5942 39.5C20.5942 38.9023 20.7055 38.3398 20.9281 37.8125C21.1508 37.2734 21.4555 36.8047 21.8422 36.4062C22.2289 35.9961 22.6801 35.668 23.1957 35.4219C23.7231 35.1758 24.2856 35.0352 24.8832 35L30.5434 23.6445L24.5844 11.7266L25.6039 8.65039L31.809 21.0957L38.0141 8.65039L39.0336 11.7266L33.0746 23.6445L38.7348 35ZM25.0942 41.75C25.4106 41.75 25.7035 41.6914 25.9731 41.5742C26.2426 41.457 26.477 41.2988 26.6762 41.0996C26.8871 40.8887 27.0512 40.6484 27.1684 40.3789C27.2856 40.1094 27.3442 39.8164 27.3442 39.5C27.3442 39.1836 27.2856 38.8906 27.1684 38.6211C27.0512 38.3516 26.8871 38.1172 26.6762 37.918C26.477 37.707 26.2426 37.543 25.9731 37.4258C25.7035 37.3086 25.4106 37.25 25.0942 37.25C24.7778 37.25 24.4848 37.3086 24.2153 37.4258C23.9457 37.543 23.7055 37.707 23.4945 37.918C23.2953 38.1172 23.1371 38.3516 23.0199 38.6211C22.9028 38.8906 22.8442 39.1836 22.8442 39.5C22.8442 39.8164 22.9028 40.1094 23.0199 40.3789C23.1371 40.6484 23.2953 40.8887 23.4945 41.0996C23.7055 41.2988 23.9457 41.457 24.2153 41.5742C24.4848 41.6914 24.7778 41.75 25.0942 41.75ZM38.5942 41.75C38.9106 41.75 39.2035 41.6914 39.4731 41.5742C39.7426 41.457 39.977 41.2988 40.1762 41.0996C40.3871 40.8887 40.5512 40.6484 40.6684 40.3789C40.7856 40.1094 40.8442 39.8164 40.8442 39.5C40.8442 39.1836 40.7856 38.8906 40.6684 38.6211C40.5512 38.3516 40.3871 38.1172 40.1762 37.918C39.977 37.707 39.7426 37.543 39.4731 37.4258C39.2035 37.3086 38.9106 37.25 38.5942 37.25C38.2778 37.25 37.9848 37.3086 37.7153 37.4258C37.4457 37.543 37.2055 37.707 36.9945 37.918C36.7953 38.1172 36.6371 38.3516 36.5199 38.6211C36.4028 38.8906 36.3442 39.1836 36.3442 39.5C36.3442 39.8164 36.4028 40.1094 36.5199 40.3789C36.6371 40.6484 36.7953 40.8887 36.9945 41.0996C37.2055 41.2988 37.4457 41.457 37.7153 41.5742C37.9848 41.6914 38.2778 41.75 38.5942 41.75Z" fill="black" fill-opacity="0.7"/>
</g>
<defs>
<clipPath id="clip0">
<rect width="64" height="64" fill="white"/>
</clipPath>
</defs>
</svg>
