<svg width="64" height="64" viewBox="0 0 64 64" fill="none" xmlns="http://www.w3.org/2000/svg">
<g clip-path="url(#clip0)">
<rect width="64" height="64" fill="black" fill-opacity="0.02"/>
<path d="M24.5762 58.6016C24.5762 60.9609 23.459 62.1406 21.2246 62.1406C19.084 62.1406 18.0137 61.0059 18.0137 58.7363V53.5977H19.4082V58.4492C19.4082 60.0977 20.0488 60.9219 21.3301 60.9219C22.5645 60.9219 23.1816 60.127 23.1816 58.5371V53.5977H24.5762V58.6016ZM31.7422 62H30.3828V58.6191C30.3828 57.498 29.9863 56.9375 29.1934 56.9375C28.7793 56.9375 28.4375 57.0938 28.168 57.4062C27.8984 57.7148 27.7637 58.1055 27.7637 58.5781V62H26.3984V56H27.7637V56.9961H27.7871C28.2363 56.2383 28.8848 55.8594 29.7324 55.8594C30.3848 55.8594 30.8828 56.0723 31.2266 56.498C31.5703 56.9199 31.7422 57.5312 31.7422 58.332V62ZM38.8613 62H37.502V60.9805H37.4785C37.041 61.7539 36.3672 62.1406 35.457 62.1406C34.7188 62.1406 34.127 61.873 33.6816 61.3379C33.2402 60.7988 33.0195 60.0664 33.0195 59.1406C33.0195 58.1484 33.2637 57.3535 33.752 56.7559C34.2441 56.1582 34.8984 55.8594 35.7148 55.8594C36.5234 55.8594 37.1113 56.1836 37.4785 56.832H37.502V53.1172H38.8613V62ZM37.5195 59.2578V58.4727C37.5195 58.0469 37.3809 57.6855 37.1035 57.3887C36.8262 57.0918 36.4727 56.9434 36.043 56.9434C35.5352 56.9434 35.1348 57.1328 34.8418 57.5117C34.5527 57.8906 34.4082 58.416 34.4082 59.0879C34.4082 59.6973 34.5469 60.1797 34.8242 60.5352C35.1055 60.8867 35.4824 61.0625 35.9551 61.0625C36.4199 61.0625 36.7969 60.8926 37.0859 60.5527C37.375 60.209 37.5195 59.7773 37.5195 59.2578ZM43.2969 62.1406C42.3711 62.1406 41.6309 61.8613 41.0762 61.3027C40.5254 60.7402 40.25 59.9961 40.25 59.0703C40.25 58.0625 40.5371 57.2754 41.1113 56.709C41.6895 56.1426 42.4668 55.8594 43.4434 55.8594C44.3809 55.8594 45.1113 56.1348 45.6348 56.6855C46.1582 57.2363 46.4199 58 46.4199 58.9766C46.4199 59.9336 46.1367 60.7012 45.5703 61.2793C45.0078 61.8535 44.25 62.1406 43.2969 62.1406ZM43.3613 56.9434C42.8301 56.9434 42.4102 57.1289 42.1016 57.5C41.793 57.8711 41.6387 58.3828 41.6387 59.0352C41.6387 59.6641 41.7949 60.1602 42.1074 60.5234C42.4199 60.8828 42.8379 61.0625 43.3613 61.0625C43.8965 61.0625 44.3066 60.8848 44.5918 60.5293C44.8809 60.1738 45.0254 59.668 45.0254 59.0117C45.0254 58.3516 44.8809 57.8418 44.5918 57.4824C44.3066 57.123 43.8965 56.9434 43.3613 56.9434Z" fill="#323130"/>
<path d="M33.4107 6.07031C34.5357 6.07031 35.6197 6.2168 36.6627 6.50977C37.7056 6.80273 38.6842 7.21875 39.5982 7.75781C40.5123 8.29688 41.3443 8.94141 42.0943 9.69141C42.8443 10.4414 43.4888 11.2734 44.0279 12.1875C44.567 13.1016 44.983 14.0801 45.2759 15.123C45.5689 16.166 45.7154 17.25 45.7154 18.375C45.7154 19.9805 45.4049 21.5332 44.7838 23.0332C44.1744 24.5215 43.3013 25.834 42.1646 26.9707L27.4517 41.666L25.8697 40.084L40.565 25.3711C41.4908 24.4453 42.2056 23.3789 42.7095 22.1719C43.2134 20.9531 43.4654 19.6875 43.4654 18.375C43.4654 17.0039 43.1959 15.709 42.6568 14.4902C42.1295 13.2715 41.4088 12.2051 40.4947 11.291C39.5806 10.377 38.5142 9.65625 37.2955 9.12891C36.0767 8.58984 34.7818 8.32031 33.4107 8.32031C32.1451 8.32031 31.0259 8.51367 30.0533 8.90039C29.0924 9.27539 28.2017 9.7793 27.3814 10.4121C26.5611 11.0332 25.7701 11.7422 25.0084 12.5391C24.2584 13.3359 23.4674 14.1562 22.6353 15H30.0357V17.25H18.7857V6H21.0357V13.4004C21.6802 12.7441 22.2955 12.1113 22.8814 11.502C23.4791 10.8809 24.0709 10.3008 24.6568 9.76172C25.2545 9.21094 25.858 8.71289 26.4674 8.26758C27.0884 7.81055 27.7447 7.42383 28.4361 7.10742C29.1392 6.7793 29.8951 6.52734 30.7037 6.35156C31.524 6.16406 32.4263 6.07031 33.4107 6.07031Z" fill="black" fill-opacity="0.7"/>
</g>
<defs>
<clipPath id="clip0">
<rect width="64" height="64" fill="white"/>
</clipPath>
</defs>
</svg>
