<svg width="64" height="64" viewBox="0 0 64 64" fill="none" xmlns="http://www.w3.org/2000/svg">
<g clip-path="url(#clip0)">
<rect width="64" height="64" fill="black" fill-opacity="0.02"/>
<path d="M27.132 62H25.5031L24.1613 59.75C24.0402 59.543 23.921 59.3672 23.8038 59.2227C23.6906 59.0742 23.5734 58.9531 23.4523 58.8594C23.3351 58.7656 23.2062 58.6973 23.0656 58.6543C22.9249 58.6113 22.7667 58.5898 22.5909 58.5898H22.0284V62H20.6398V53.5977H23.4054C23.7999 53.5977 24.1632 53.6445 24.4952 53.7383C24.8273 53.832 25.1163 53.9746 25.3624 54.166C25.6085 54.3535 25.7999 54.5898 25.9366 54.875C26.0773 55.1562 26.1476 55.4863 26.1476 55.8652C26.1476 56.1621 26.1027 56.4355 26.0128 56.6855C25.9269 56.9316 25.8019 57.1523 25.6378 57.3477C25.4777 57.5391 25.2823 57.7031 25.0519 57.8398C24.8253 57.9766 24.5695 58.082 24.2843 58.1562V58.1797C24.4366 58.2656 24.5695 58.3613 24.6827 58.4668C24.796 58.5684 24.9034 58.6738 25.005 58.7832C25.1066 58.8926 25.2062 59.0176 25.3038 59.1582C25.4054 59.2949 25.5167 59.4551 25.6378 59.6387L27.132 62ZM22.0284 54.7285V57.459H23.1886C23.4034 57.459 23.6007 57.4258 23.7804 57.3594C23.964 57.293 24.1222 57.1973 24.255 57.0723C24.3878 56.9473 24.4913 56.7949 24.5656 56.6152C24.6398 56.4355 24.6769 56.2344 24.6769 56.0117C24.6769 55.6094 24.5499 55.2949 24.296 55.0684C24.0421 54.8418 23.6769 54.7285 23.2003 54.7285H22.0284ZM32.7277 59.3691H28.6378C28.6534 59.9238 28.8234 60.3516 29.1476 60.6523C29.4757 60.9531 29.9249 61.1035 30.4952 61.1035C31.1359 61.1035 31.7238 60.9121 32.2589 60.5293V61.625C31.712 61.9688 30.9894 62.1406 30.0909 62.1406C29.2081 62.1406 28.5148 61.8691 28.0109 61.3262C27.5109 60.7793 27.2609 60.0117 27.2609 59.0234C27.2609 58.0898 27.5363 57.3301 28.087 56.7441C28.6417 56.1543 29.3292 55.8594 30.1495 55.8594C30.9698 55.8594 31.6046 56.123 32.0538 56.6504C32.5031 57.1777 32.7277 57.9102 32.7277 58.8477V59.3691ZM31.4152 58.4082C31.4113 57.9199 31.296 57.541 31.0695 57.2715C30.8429 56.998 30.5304 56.8613 30.132 56.8613C29.7413 56.8613 29.4093 57.0039 29.1359 57.2891C28.8663 57.5742 28.7003 57.9473 28.6378 58.4082H31.4152ZM39.4777 62H38.1183V60.9805H38.0948C37.6573 61.7539 36.9835 62.1406 36.0734 62.1406C35.3351 62.1406 34.7433 61.873 34.298 61.3379C33.8566 60.7988 33.6359 60.0664 33.6359 59.1406C33.6359 58.1484 33.88 57.3535 34.3683 56.7559C34.8605 56.1582 35.5148 55.8594 36.3312 55.8594C37.1398 55.8594 37.7277 56.1836 38.0948 56.832H38.1183V53.1172H39.4777V62ZM38.1359 59.2578V58.4727C38.1359 58.0469 37.9972 57.6855 37.7198 57.3887C37.4425 57.0918 37.089 56.9434 36.6593 56.9434C36.1515 56.9434 35.7511 57.1328 35.4581 57.5117C35.1691 57.8906 35.0245 58.416 35.0245 59.0879C35.0245 59.6973 35.1632 60.1797 35.4406 60.5352C35.7218 60.8867 36.0988 61.0625 36.5714 61.0625C37.0363 61.0625 37.4132 60.8926 37.7023 60.5527C37.9913 60.209 38.1359 59.7773 38.1359 59.2578ZM43.9132 62.1406C42.9874 62.1406 42.2472 61.8613 41.6925 61.3027C41.1417 60.7402 40.8663 59.9961 40.8663 59.0703C40.8663 58.0625 41.1534 57.2754 41.7277 56.709C42.3058 56.1426 43.0831 55.8594 44.0597 55.8594C44.9972 55.8594 45.7277 56.1348 46.2511 56.6855C46.7745 57.2363 47.0363 58 47.0363 58.9766C47.0363 59.9336 46.7531 60.7012 46.1866 61.2793C45.6241 61.8535 44.8663 62.1406 43.9132 62.1406ZM43.9777 56.9434C43.4464 56.9434 43.0265 57.1289 42.7179 57.5C42.4093 57.8711 42.255 58.3828 42.255 59.0352C42.255 59.6641 42.4113 60.1602 42.7238 60.5234C43.0363 60.8828 43.4542 61.0625 43.9777 61.0625C44.5128 61.0625 44.923 60.8848 45.2081 60.5293C45.4972 60.1738 45.6417 59.668 45.6417 59.0117C45.6417 58.3516 45.4972 57.8418 45.2081 57.4824C44.923 57.123 44.5128 56.9434 43.9777 56.9434Z" fill="#323130"/>
<path d="M33.5357 15H40.9361C40.1041 14.1562 39.3072 13.3359 38.5455 12.5391C37.7955 11.7422 37.0103 11.0332 36.19 10.4121C35.3697 9.7793 34.4732 9.27539 33.5006 8.90039C32.5396 8.51367 31.4263 8.32031 30.1607 8.32031C28.7896 8.32031 27.4947 8.58984 26.2759 9.12891C25.0572 9.65625 23.9908 10.377 23.0767 11.291C22.1627 12.2051 21.4361 13.2715 20.897 14.4902C20.3697 15.709 20.106 17.0039 20.106 18.375C20.106 19.6875 20.358 20.9531 20.8619 22.1719C21.3658 23.3789 22.0806 24.4453 23.0064 25.3711L37.7017 40.084L36.1197 41.666L21.4068 26.9707C20.2701 25.834 19.3912 24.5215 18.7701 23.0332C18.1607 21.5332 17.856 19.9805 17.856 18.375C17.856 17.25 18.0025 16.166 18.2955 15.123C18.5884 14.0801 19.0045 13.1016 19.5435 12.1875C20.0826 11.2734 20.7271 10.4414 21.4771 9.69141C22.2271 8.94141 23.0592 8.29688 23.9732 7.75781C24.8873 7.21875 25.8658 6.80273 26.9088 6.50977C27.9517 6.2168 29.0357 6.07031 30.1607 6.07031C31.1451 6.07031 32.0416 6.16406 32.8502 6.35156C33.6705 6.52734 34.4263 6.7793 35.1177 7.10742C35.8209 7.42383 36.4771 7.81055 37.0865 8.26758C37.7076 8.71289 38.3111 9.21094 38.897 9.76172C39.4947 10.3008 40.0865 10.8809 40.6724 11.502C41.2584 12.1113 41.8795 12.7441 42.5357 13.4004V6H44.7857V17.25H33.5357V15Z" fill="black" fill-opacity="0.7"/>
</g>
<defs>
<clipPath id="clip0">
<rect width="64" height="64" fill="white"/>
</clipPath>
</defs>
</svg>
