<svg width="64" height="64" viewBox="0 0 64 64" fill="none" xmlns="http://www.w3.org/2000/svg">
<g clip-path="url(#clip0)">
<rect width="64" height="64" fill="black" fill-opacity="0.02"/>
<path d="M12.5742 57.9531V61H11.1855V52.5977H13.7344C14.6992 52.5977 15.4473 52.8223 15.9785 53.2715C16.5098 53.7207 16.7754 54.3535 16.7754 55.1699C16.7754 55.9863 16.498 56.6543 15.9434 57.1738C15.3887 57.6934 14.6387 57.9531 13.6934 57.9531H12.5742ZM12.5742 53.7461V56.8164H13.4766C14.0742 56.8164 14.5293 56.6777 14.8418 56.4004C15.1543 56.123 15.3105 55.7324 15.3105 55.2285C15.3105 54.2402 14.7363 53.7461 13.5879 53.7461H12.5742ZM23.2852 61H21.9258V60.0508H21.9023C21.5078 60.7773 20.8945 61.1406 20.0625 61.1406C18.6445 61.1406 17.9355 60.2891 17.9355 58.5859V55H19.2949V58.4453C19.2949 59.5234 19.7109 60.0625 20.543 60.0625C20.9453 60.0625 21.2754 59.9141 21.5332 59.6172C21.7949 59.3203 21.9258 58.9316 21.9258 58.4512V55H23.2852V61ZM26.4434 60.1328H26.4199V61H25.0605V52.1172H26.4199V56.0547H26.4434C26.9082 55.2578 27.5879 54.8594 28.4824 54.8594C29.2402 54.8594 29.832 55.1289 30.2578 55.668C30.6875 56.2031 30.9023 56.9219 30.9023 57.8242C30.9023 58.8281 30.6621 59.6328 30.1816 60.2383C29.7012 60.8398 29.0449 61.1406 28.2129 61.1406C27.4316 61.1406 26.8418 60.8047 26.4434 60.1328ZM26.4082 57.748V58.4922C26.4082 58.9297 26.5469 59.3008 26.8242 59.6055C27.1055 59.9102 27.4609 60.0625 27.8906 60.0625C28.3945 60.0625 28.7891 59.8672 29.0742 59.4766C29.3633 59.082 29.5078 58.5332 29.5078 57.8301C29.5078 57.2402 29.373 56.7793 29.1035 56.4473C28.8379 56.1113 28.4766 55.9434 28.0195 55.9434C27.5352 55.9434 27.1445 56.1152 26.8477 56.459C26.5547 56.8027 26.4082 57.2324 26.4082 57.748ZM33.6562 61H32.291V52.1172H33.6562V61ZM36.1172 53.7402C35.8945 53.7402 35.7031 53.668 35.543 53.5234C35.3867 53.3789 35.3086 53.1953 35.3086 52.9727C35.3086 52.75 35.3867 52.5645 35.543 52.416C35.7031 52.2676 35.8945 52.1934 36.1172 52.1934C36.3477 52.1934 36.543 52.2676 36.7031 52.416C36.8633 52.5645 36.9434 52.75 36.9434 52.9727C36.9434 53.1836 36.8633 53.3652 36.7031 53.5176C36.543 53.666 36.3477 53.7402 36.1172 53.7402ZM36.791 61H35.4316V55H36.791V61ZM38.1973 60.8125V59.5527C38.7051 59.9395 39.2656 60.1328 39.8789 60.1328C40.6992 60.1328 41.1094 59.8906 41.1094 59.4062C41.1094 59.2695 41.0742 59.1543 41.0039 59.0605C40.9336 58.9629 40.8379 58.877 40.7168 58.8027C40.5996 58.7285 40.459 58.6621 40.2949 58.6035C40.1348 58.5449 39.9551 58.4785 39.7559 58.4043C39.5098 58.3066 39.2871 58.2031 39.0879 58.0938C38.8926 57.9844 38.7285 57.8613 38.5957 57.7246C38.4668 57.584 38.3691 57.4258 38.3027 57.25C38.2363 57.0742 38.2031 56.8691 38.2031 56.6348C38.2031 56.3457 38.2715 56.0918 38.4082 55.873C38.5449 55.6504 38.7285 55.4648 38.959 55.3164C39.1895 55.1641 39.4512 55.0508 39.7441 54.9766C40.0371 54.8984 40.3398 54.8594 40.6523 54.8594C41.207 54.8594 41.7031 54.9434 42.1406 55.1113V56.3008C41.7188 56.0117 41.2344 55.8672 40.6875 55.8672C40.5156 55.8672 40.3594 55.8848 40.2188 55.9199C40.082 55.9551 39.9648 56.0039 39.8672 56.0664C39.7695 56.1289 39.6934 56.2051 39.6387 56.2949C39.584 56.3809 39.5566 56.4766 39.5566 56.582C39.5566 56.7109 39.584 56.8203 39.6387 56.9102C39.6934 57 39.7734 57.0801 39.8789 57.1504C39.9883 57.2168 40.1172 57.2793 40.2656 57.3379C40.418 57.3926 40.5918 57.4531 40.7871 57.5195C41.0449 57.625 41.2754 57.7324 41.4785 57.8418C41.6855 57.9512 41.8613 58.0762 42.0059 58.2168C42.1504 58.3535 42.2617 58.5137 42.3398 58.6973C42.418 58.877 42.457 59.0918 42.457 59.3418C42.457 59.6465 42.3867 59.9121 42.2461 60.1387C42.1055 60.3652 41.918 60.5527 41.6836 60.7012C41.4492 60.8496 41.1777 60.959 40.8691 61.0293C40.5645 61.1035 40.2422 61.1406 39.9023 61.1406C39.2461 61.1406 38.6777 61.0312 38.1973 60.8125ZM49.084 61H47.7246V57.7188C47.7246 56.5312 47.3281 55.9375 46.5352 55.9375C46.1367 55.9375 45.8008 56.1094 45.5273 56.4531C45.2539 56.7969 45.1172 57.2363 45.1172 57.7715V61H43.752V52.1172H45.1172V55.9961H45.1406C45.5938 55.2383 46.2422 54.8594 47.0859 54.8594C48.418 54.8594 49.084 55.6738 49.084 57.3027V61Z" fill="#323130"/>
<path d="M48.2264 10.25V28.25H45.9764V19.25H14.4764V37.25H39.2264V39.5H12.2264V10.25H48.2264ZM45.9764 12.5H14.4764V17H45.9764V12.5ZM42.6014 27.793L48.2264 33.4004L46.6268 35L43.7264 32.0996V44H41.4764V32.0996L38.576 35L36.9764 33.4004L42.6014 27.793Z" fill="black" fill-opacity="0.7"/>
</g>
<defs>
<clipPath id="clip0">
<rect width="64" height="64" fill="white"/>
</clipPath>
</defs>
</svg>
